<svg xmlns="http://www.w3.org/2000/svg" xmlns:xlink="http://www.w3.org/1999/xlink" version="1.1" x="0px" y="0px" viewBox="0 0 100 100" enable-background="new 0 0 100 100" xml:space="preserve"><path fill="#000000" d="M76.999,56.887c-2.617,0-5.078,1.019-6.96,2.9c-0.037,0.036-0.074,0.073-0.111,0.111L59.745,49.716  l10.184-10.183c0.047,0.048,0.095,0.095,0.142,0.142c1.851,1.851,4.312,2.87,6.93,2.87c2.617,0,5.078-1.02,6.929-2.87  c1.852-1.851,2.871-4.312,2.871-6.93s-1.02-5.079-2.871-6.93c-1.849-1.849-4.307-2.867-6.921-2.867c-0.562,0-1.12,0.049-1.67,0.145  c0.521-3.048-0.408-6.277-2.723-8.592c-1.852-1.851-4.312-2.87-6.93-2.87c-2.618,0-5.079,1.02-6.93,2.87  c-3.821,3.821-3.821,10.038,0.03,13.891c0.036,0.037,0.073,0.073,0.111,0.111L48.715,38.686L38.532,28.503  c0.048-0.047,0.095-0.095,0.142-0.142c3.821-3.821,3.821-10.039,0-13.859c-1.851-1.851-4.312-2.871-6.93-2.871  s-5.079,1.02-6.929,2.871c-2.315,2.314-3.246,5.544-2.723,8.592c-0.55-0.096-1.109-0.145-1.671-0.145  c-2.614,0-5.072,1.018-6.921,2.867c-3.821,3.821-3.821,10.039,0,13.859c1.851,1.851,4.312,2.87,6.93,2.87  c2.618,0,5.079-1.019,6.963-2.903c0.036-0.036,0.071-0.072,0.108-0.108l10.183,10.182L27.502,59.898  c-0.047-0.048-0.095-0.095-0.142-0.143c-1.851-1.851-4.312-2.869-6.93-2.869s-5.079,1.019-6.93,2.87  c-3.82,3.821-3.82,10.038,0,13.858c1.849,1.85,4.307,2.867,6.921,2.867c0.562,0,1.121-0.049,1.671-0.145  c-0.522,3.048,0.408,6.278,2.722,8.592c1.851,1.852,4.312,2.87,6.93,2.87s5.079-1.019,6.93-2.87  c3.821-3.821,3.821-10.038-0.036-13.896c-0.035-0.035-0.07-0.07-0.105-0.105l10.182-10.183l10.183,10.183  c-0.048,0.048-0.095,0.095-0.143,0.142c-3.82,3.821-3.82,10.039,0.001,13.86c1.852,1.851,4.312,2.869,6.93,2.869  c2.618,0,5.079-1.019,6.929-2.87c2.315-2.314,3.245-5.544,2.723-8.592c0.551,0.096,1.109,0.145,1.671,0.145c0,0,0,0,0.001,0  c2.613,0,5.071-1.018,6.92-2.867c3.821-3.82,3.821-10.038,0-13.858C82.078,57.905,79.617,56.887,76.999,56.887z M62.83,29.661  c0.394-0.394,0.583-0.947,0.514-1.5c-0.07-0.552-0.392-1.041-0.871-1.324c-0.362-0.213-0.725-0.575-1.171-1.021  c-2.418-2.418-2.418-6.352-0.001-8.769c1.171-1.171,2.729-1.816,4.385-1.816s3.213,0.645,4.384,1.815  c2.204,2.205,2.424,5.721,0.511,8.18c-0.555,0.714-0.494,1.729,0.142,2.372l0.098,0.099c0.641,0.647,1.664,0.715,2.385,0.154  c1.079-0.839,2.43-1.302,3.804-1.302c1.653,0,3.207,0.644,4.376,1.813c1.171,1.171,1.816,2.728,1.815,4.384  c0,1.656-0.645,3.213-1.815,4.384S78.655,38.945,77,38.945c-1.656,0-3.214-0.645-4.414-1.845c-0.418-0.418-0.779-0.779-0.992-1.141  c-0.282-0.48-0.771-0.802-1.323-0.872c-0.556-0.071-1.107,0.119-1.5,0.513L57.2,47.171l-5.94-5.94L62.83,29.661z M34.599,69.771  c-0.394,0.394-0.583,0.947-0.513,1.5c0.07,0.552,0.392,1.041,0.872,1.323c0.36,0.212,0.72,0.571,1.17,1.021  c2.418,2.418,2.418,6.352,0,8.77c-1.171,1.171-2.728,1.815-4.384,1.815s-3.213-0.645-4.384-1.815  c-2.204-2.204-2.423-5.721-0.51-8.18c0.557-0.717,0.494-1.736-0.148-2.378l-0.099-0.099c-0.35-0.35-0.81-0.527-1.273-0.527  c-0.388,0-0.778,0.125-1.105,0.379c-1.079,0.84-2.43,1.303-3.804,1.303c-1.653,0-3.207-0.644-4.375-1.812  c-2.417-2.417-2.417-6.351,0-8.769c1.171-1.171,2.728-1.815,4.384-1.815s3.214,0.645,4.418,1.85  c0.416,0.416,0.775,0.776,0.987,1.136c0.283,0.48,0.771,0.803,1.324,0.872c0.553,0.073,1.107-0.119,1.5-0.513l11.57-11.57l5.94,5.94  L34.599,69.771z"></path></svg>